solid GiD
  facet normal               0               0               1  
    outer loop
      vertex               0               0               0
      vertex              10               0               0
      vertex              10              10               0
    endloop
  endfacet
  facet normal               0               0               1  
    outer loop
      vertex              10              10               0
      vertex               0              10               0
      vertex               0               0               0
    endloop
  endfacet
  facet normal              -1               0               0  
    outer loop
      vertex              10              10               0
      vertex              10               0               0
      vertex              10              10              10
    endloop
  endfacet
  facet normal              -1               0               0  
    outer loop
      vertex              10               0               0
      vertex              10               0              10
      vertex              10              10              10
    endloop
  endfacet
  facet normal               1               0               0  
    outer loop
      vertex               0               0               0
      vertex               0              10               0
      vertex               0              10              10
    endloop
  endfacet
  facet normal               1               0               0  
    outer loop
      vertex               0              10              10
      vertex               0               0              10
      vertex               0               0               0
    endloop
  endfacet
  facet normal     -0.99503719               0     0.099503719  
    outer loop
      vertex               0               0              10
      vertex               0              10              10
      vertex              -1              10               0
    endloop
  endfacet
  facet normal     -0.99503719               0     0.099503719  
    outer loop
      vertex              -1              10               0
      vertex              -1               0               0
      vertex               0               0              10
    endloop
  endfacet
endsolid GiD
